<?xml version="1.0" encoding="utf-8"?>
<!-- Generator: Adobe Illustrator 13.0.2, SVG Export Plug-In . SVG Version: 6.00 Build 14948)  -->
<!DOCTYPE svg PUBLIC "-//W3C//DTD SVG 1.1 Tiny//EN" "http://www.w3.org/Graphics/SVG/1.1/DTD/svg11-tiny.dtd">
<svg version="1.1" baseProfile="tiny" id="Layer_1" xmlns="http://www.w3.org/2000/svg" xmlns:xlink="http://www.w3.org/1999/xlink"
	 x="0px" y="0px" width="92.723px" height="13.776px" viewBox="0 0 92.723 13.776" xml:space="preserve">
<g>
	<path fill="#010101" d="M10.224,1.8L9.78,2.328c-0.072,0.088-0.16,0.288-0.264,0.6c0,0.016-0.028,0.076-0.084,0.18
		c-0.04,0.08-0.06,0.144-0.06,0.192v4.824c0,0.288,0.024,0.52,0.072,0.695c0.008,0.064,0.092,0.188,0.252,0.372
		C9.872,9.392,10,9.493,10.08,9.493c0.048,0,0.144-0.028,0.288-0.084c-0.032,0.071-0.172,0.264-0.42,0.575
		c-0.304,0.353-0.516,0.528-0.636,0.528s-0.304-0.168-0.552-0.504C8.664,9.88,8.586,9.772,8.526,9.684
		c-0.06-0.088-0.106-0.16-0.138-0.216C8.356,9.413,8.34,9.348,8.34,9.276C8.34,9.212,8.352,9.121,8.376,9
		c0.032-0.136,0.048-0.236,0.048-0.3V3.24C8.456,3.032,8.528,2.86,8.64,2.724C8.632,2.716,8.626,2.708,8.622,2.7
		c-0.004-0.008-0.01-0.016-0.018-0.024C8.516,2.645,8.412,2.61,8.292,2.574c-0.12-0.036-0.256-0.082-0.408-0.138
		C7.716,2.38,7.56,2.352,7.416,2.352c-0.16,0-0.324,0.092-0.492,0.276v2.796H7.08l0.3-0.06v0.072C7.26,5.58,7.108,5.704,6.924,5.808
		v4.729h-0.18V5.916C6.504,6.028,6.296,6.1,6.12,6.132C6.088,6.148,6.064,6.164,6.048,6.18C6.024,6.364,6.012,6.572,6.012,6.804
		L5.988,8.136c-0.008,0.92,0.132,1.38,0.42,1.38c0.032,0,0.092-0.023,0.18-0.072c0.008,0.024,0.04,0.049,0.096,0.072
		c-0.552,0.664-0.92,0.996-1.104,0.996c-0.112,0-0.276-0.192-0.492-0.576c-0.2-0.352-0.3-0.571-0.3-0.66
		C4.884,9.092,4.936,8.98,4.944,8.94C4.976,8.78,4.998,8.546,5.01,8.238C5.022,7.93,5.028,7.541,5.028,7.069V6.144H4.332
		c-0.184,0-0.424,0.024-0.72,0.072c0.032-0.104,0.144-0.232,0.336-0.384C4.124,5.696,4.272,5.6,4.392,5.544
		c0.048-0.016,0.16-0.032,0.336-0.048c0.144-0.016,0.244-0.044,0.3-0.084V4.14c0-0.312-0.08-0.636-0.24-0.972
		c-0.192-0.392-0.456-0.652-0.792-0.78C3.764,2.284,3.588,2.232,3.468,2.232c-0.088,0-0.174,0.042-0.258,0.126
		S3.068,2.524,3.036,2.604c-0.128,0.44-0.188,0.892-0.18,1.356l0.06,2.796C2.924,7.1,2.856,7.533,2.712,8.052
		c-0.128,0.456-0.388,0.952-0.78,1.488c-0.456,0.647-0.872,0.972-1.248,0.972c-0.272,0-0.468-0.164-0.588-0.492
		C0.032,9.812,0,9.6,0,9.384C0,9.176,0.024,9,0.072,8.856c0.032,0.017,0.064,0.068,0.096,0.156C0.24,9.188,0.448,9.34,0.792,9.468
		c0.144,0.04,0.28,0.06,0.408,0.06c0.192,0,0.328-0.02,0.408-0.06C1.824,9.34,1.956,9.077,2.004,8.676
		C2.06,8.285,2.1,7.966,2.124,7.722S2.16,7.304,2.16,7.2c0-0.295-0.056-0.563-0.168-0.804c-0.16-0.312-0.396-0.468-0.708-0.468
		c-0.08,0-0.244,0.064-0.492,0.192L0.744,6.072v-0.06C0.752,5.996,0.77,5.97,0.798,5.934c0.028-0.036,0.066-0.086,0.114-0.15
		c0.208-0.28,0.48-0.524,0.816-0.732c0.032-0.016,0.074-0.036,0.126-0.06c0.052-0.024,0.118-0.056,0.198-0.096
		c0-0.424,0.068-0.852,0.204-1.284c0.008-0.032,0.014-0.07,0.018-0.114C2.278,3.454,2.288,3.4,2.304,3.336
		c0.08-0.208,0.248-0.512,0.504-0.912C2.792,2.4,2.744,2.388,2.664,2.388c-0.024,0-0.058,0.004-0.102,0.012
		C2.518,2.408,2.484,2.412,2.46,2.412c0.144,0,0.028-0.04-0.348-0.12c-0.368-0.08-0.6-0.12-0.696-0.12
		c-0.328,0-0.508,0.136-0.54,0.408C0.868,2.588,0.862,2.596,0.858,2.604C0.854,2.612,0.848,2.62,0.84,2.628
		C0.808,2.62,0.78,2.612,0.756,2.604C0.732,2.596,0.72,2.564,0.72,2.508c0-0.12,0.108-0.288,0.324-0.504
		c0.176-0.168,0.344-0.3,0.504-0.396C1.82,1.44,2.112,1.356,2.424,1.356c0.144,0,0.348,0.04,0.612,0.12
		c0.264,0.08,0.464,0.12,0.6,0.12C4.02,1.42,4.28,1.332,4.416,1.332c0.328,0,0.668,0.192,1.02,0.576c0.32,0.376,0.5,0.736,0.54,1.08
		C6.008,3.06,6.04,3.16,6.072,3.288c0.008,0.008,0.02,0.028,0.036,0.06C6.244,3.22,6.366,3.084,6.474,2.94
		c0.108-0.144,0.194-0.304,0.258-0.48l0.012-0.024V1.44h0.18v0.72C7.02,2.048,7.122,1.946,7.23,1.854
		c0.108-0.092,0.226-0.178,0.354-0.258c0.28-0.184,0.492-0.264,0.636-0.24l1.5,0.216c0.264,0.008,0.512-0.084,0.744-0.276
		l0.108,0.024C10.532,1.424,10.416,1.584,10.224,1.8z M6.744,2.856L6.708,2.904c-0.392,0.44-0.604,1.184-0.636,2.232
		c0,0.024-0.004,0.068-0.012,0.132C6.052,5.333,6.048,5.38,6.048,5.412c0,0.024,0.012,0.048,0.036,0.072
		c0.064,0,0.152-0.004,0.264-0.012c0.112-0.008,0.244-0.02,0.396-0.036V2.856z"/>
	<path fill="#010101" d="M14.904,10.44c-0.064-0.063-0.136-0.14-0.216-0.228s-0.176-0.188-0.288-0.3
		c-0.041-0.057-0.09-0.141-0.15-0.252c-0.06-0.112-0.134-0.248-0.222-0.408c-0.041,0.032-0.096,0.071-0.168,0.12
		c-0.072,0.048-0.152,0.111-0.24,0.191c-0.088,0.097-0.182,0.192-0.282,0.288c-0.101,0.096-0.206,0.192-0.318,0.288
		c-0.016,0.017-0.078,0.062-0.186,0.138c-0.108,0.076-0.262,0.183-0.462,0.318l-0.072-0.06c0.016-0.192-0.104-0.404-0.36-0.637
		c-0.224-0.199-0.448-0.332-0.672-0.396c0.168-0.248,0.252-0.496,0.252-0.744V7.044c0-0.04-0.02-0.128-0.06-0.265
		c0.008-0.008,0.016-0.018,0.024-0.03c0.008-0.012,0.02-0.026,0.036-0.042c0.144,0,0.34-0.028,0.588-0.084
		c0.08-0.032,0.182-0.064,0.306-0.096c0.124-0.032,0.278-0.068,0.462-0.108c0.112-0.032,0.256-0.068,0.432-0.108
		c0.176-0.04,0.38-0.092,0.612-0.156v-0.54c-0.08-0.128-0.308-0.324-0.684-0.588c-0.272-0.184-0.552-0.328-0.84-0.432
		c-0.04,0.04-0.08,0.074-0.12,0.102c-0.041,0.028-0.076,0.054-0.108,0.078c-0.12,0.112-0.18,0.3-0.18,0.564
		c0,0.312-0.06,0.468-0.18,0.468c-0.184,0-0.276-0.112-0.276-0.336c0-0.264,0.14-0.504,0.42-0.72
		c0.096-0.072,0.252-0.194,0.468-0.366c0.216-0.172,0.496-0.398,0.84-0.678l1.38,0.888c0.128,0.088,0.308,0.16,0.54,0.216v0.06
		c-0.168,0.256-0.252,0.452-0.252,0.588v2.855c0,0.12,0.236,0.509,0.708,1.164c0.056,0.064,0.144,0.093,0.264,0.084l0.024,0.072
		L14.904,10.44z M13.92,6.348l-1.212,0.324C12.62,6.928,12.584,7.224,12.6,7.56c0.016,0.592-0.012,1.024-0.084,1.296l0.792,0.78
		l0.612-0.516V6.348z"/>
	<path fill="#010101" d="M20.328,4.536c-0.088,0.28-0.132,0.492-0.132,0.636v2.832c0,0.359,0.004,0.527,0.012,0.504
		c-0.008,0.12-0.112,0.252-0.312,0.396c-0.048,0.04-0.108,0.087-0.18,0.139c-0.072,0.052-0.16,0.118-0.264,0.197
		c-0.064,0.057-0.16,0.133-0.288,0.229s-0.284,0.216-0.468,0.36c-0.168,0.151-0.452,0.399-0.852,0.743h-0.072
		c-0.04-0.056-0.082-0.113-0.126-0.174c-0.044-0.06-0.098-0.126-0.162-0.197l-0.348-0.349c-0.024-0.031-0.056-0.067-0.096-0.107
		S16.952,9.657,16.896,9.6c-0.136-0.144-0.232-0.216-0.288-0.216c-0.04,0-0.092,0.008-0.156,0.024
		c-0.024-0.032-0.036-0.061-0.036-0.085c0-0.016,0.018-0.063,0.054-0.144c0.036-0.08,0.054-0.128,0.054-0.144
		c0.088-0.328,0.132-0.601,0.132-0.816V6.324c0-0.744-0.064-1.1-0.192-1.068c-0.016,0-0.044-0.01-0.084-0.03
		c-0.04-0.02-0.068-0.03-0.084-0.03c-0.016-0.016-0.024-0.036-0.024-0.06c0-0.064,0.136-0.196,0.408-0.396
		c0.064-0.056,0.156-0.13,0.276-0.222c0.12-0.092,0.272-0.206,0.456-0.342c0.064-0.04,0.146-0.09,0.246-0.15
		c0.1-0.06,0.218-0.13,0.354-0.21c-0.016-0.032-0.036-0.076-0.06-0.132c-0.024-0.056-0.056-0.128-0.096-0.216
		c-0.112-0.296-0.168-0.56-0.168-0.792c0-0.808,0.184-1.46,0.552-1.956c0.024-0.032,0.056-0.076,0.096-0.132
		c0.04-0.056,0.092-0.124,0.156-0.204c0.072-0.096,0.19-0.184,0.354-0.264C19.01,0.041,19.156,0,19.284,0
		c0.328,0,0.492,0.132,0.492,0.396c0,0.088-0.016,0.164-0.048,0.228c-0.008,0.024-0.042,0.062-0.102,0.114s-0.098,0.078-0.114,0.078
		h-0.144c0-0.024,0.002-0.058,0.006-0.102s0.006-0.078,0.006-0.102c0-0.16-0.088-0.24-0.264-0.24c-0.216,0-0.376,0.12-0.48,0.36
		c-0.088,0.192-0.132,0.404-0.132,0.636c0,0.016,0,0.04,0,0.072c0,0.024,0.004,0.056,0.012,0.096
		c0.008,0.04,0.014,0.074,0.018,0.102c0.004,0.028,0.006,0.05,0.006,0.066c0.04,0.648,0.32,1.252,0.84,1.812
		c0.056,0.056,0.118,0.11,0.186,0.162C19.634,3.73,19.712,3.784,19.8,3.84c0.4,0.264,0.6,0.424,0.6,0.48
		C20.4,4.296,20.376,4.368,20.328,4.536z M19.128,5.52c0-0.304-0.004-0.468-0.012-0.492C19.1,4.956,18.988,4.84,18.78,4.68
		c-0.032-0.016-0.078-0.05-0.138-0.102c-0.06-0.052-0.138-0.122-0.234-0.21c-0.168-0.256-0.284-0.384-0.348-0.384
		s-0.142,0.046-0.234,0.138c-0.092,0.092-0.142,0.17-0.15,0.234v3.167c0,0.345-0.048,0.652-0.144,0.924
		c0.048,0.064,0.12,0.148,0.216,0.253c0.096,0.104,0.22,0.231,0.372,0.384C18.456,9.428,18.652,9.6,18.708,9.6
		c0.048,0,0.116-0.044,0.204-0.132C19,9.38,19.056,9.312,19.08,9.264c0.032-0.088,0.048-0.336,0.048-0.744V5.52z"/>
	<path fill="#010101" d="M24.876,5.076c-0.16,0.152-0.284,0.232-0.372,0.24c-0.024,0-0.07,0.008-0.138,0.024
		c-0.068,0.016-0.118,0.024-0.15,0.024c-0.296,0-0.596-0.248-0.9-0.744c-0.096,0.032-0.192,0.11-0.288,0.234
		c-0.096,0.125-0.152,0.238-0.168,0.342c-0.016,0.12-0.03,0.248-0.042,0.384C22.806,5.716,22.8,5.864,22.8,6.024V8.52
		c0,0.296,0.02,0.496,0.06,0.601c0.056,0.111,0.224,0.292,0.504,0.54c0.072,0.016,0.152,0.04,0.24,0.071
		c0,0.032-0.008,0.057-0.024,0.072c-0.064,0.056-0.136,0.118-0.216,0.186c-0.08,0.068-0.168,0.146-0.264,0.234
		c-0.248,0.2-0.428,0.3-0.54,0.3c-0.152,0-0.34-0.147-0.564-0.443c-0.232-0.312-0.384-0.473-0.456-0.48
		c0.032-0.056,0.08-0.164,0.144-0.324c0.088-0.224,0.132-0.396,0.132-0.516V6.048c0-0.184-0.036-0.416-0.108-0.696
		c-0.016-0.064-0.038-0.13-0.066-0.198c-0.028-0.068-0.062-0.142-0.102-0.222c-0.136-0.232-0.264-0.348-0.384-0.348
		c-0.152,0-0.216,0.004-0.192,0.012c0.008-0.04,0.052-0.092,0.132-0.156c0.64-0.512,1.004-0.768,1.092-0.768
		c0.112,0,0.236,0.168,0.372,0.504c0.032,0.184,0.104,0.4,0.216,0.648l1.5-1.152h0.108c0,0.024,0.012,0.052,0.036,0.084
		c-0.008,0.168,0.028,0.352,0.108,0.552c0.096,0.24,0.216,0.36,0.36,0.36c0.024,0,0.058-0.004,0.102-0.012
		c0.043-0.008,0.074-0.012,0.09-0.012c0.016,0.048,0.024,0.068,0.024,0.06C25.104,4.8,25.028,4.924,24.876,5.076z"/>
	<path fill="#010101" d="M27.924,9.6c-0.712,0.68-1.14,1.021-1.284,1.021c-0.224,0-0.556-0.336-0.996-1.009h-0.168
		c-0.016-0.016-0.024-0.039-0.024-0.071c0.032-0.048,0.08-0.181,0.144-0.396c0.048-0.271,0.072-0.576,0.072-0.912v-2.94
		c0-0.032-0.012-0.092-0.036-0.18c-0.008-0.056-0.004-0.1,0.012-0.132c0.088-0.127,0.228-0.26,0.42-0.396
		c0.048-0.04,0.11-0.085,0.186-0.138c0.076-0.052,0.166-0.114,0.27-0.186c0.072-0.064,0.168-0.148,0.288-0.252
		c0.12-0.104,0.268-0.232,0.444-0.384L27.336,3.6c0.048,0,0.084,0.016,0.108,0.048c0.08,0.104,0.26,0.232,0.54,0.384
		c0.304,0.16,0.504,0.24,0.6,0.24h0.096h0.12c0.048,0.041,0.072,0.076,0.072,0.108c0-0.088-0.012-0.02-0.036,0.204
		C28.812,4.816,28.8,4.96,28.8,5.016v3.312c0,0.048,0.04,0.128,0.12,0.239C28.72,8.816,28.388,9.161,27.924,9.6z M27.876,5.196
		c-0.2-0.08-0.41-0.18-0.63-0.3c-0.22-0.12-0.446-0.268-0.678-0.444v3.876c0,0.456,0.184,0.832,0.552,1.128
		c0.2,0.151,0.324,0.228,0.372,0.228c0.256,0,0.384-0.271,0.384-0.815V5.196z"/>
	<path fill="#010101" d="M33.996,10.464c-0.032,0.032-0.076,0.048-0.132,0.048c-0.16,0-0.32-0.188-0.48-0.564l-0.024-0.035
		c-0.128-0.328-0.292-0.5-0.492-0.517V9.264c0,0.064,0.056-0.024,0.168-0.264c0.024-0.048,0.036-0.128,0.036-0.24V6.072
		c0-0.12-0.021-0.24-0.06-0.36c-0.072-0.208-0.18-0.392-0.324-0.552c-0.256-0.288-0.472-0.432-0.648-0.432
		c-0.104,0-0.232,0.112-0.384,0.336c-0.12,0.176-0.188,0.3-0.204,0.372v3.3c0,0.192,0.08,0.4,0.24,0.624
		c0.184,0.24,0.376,0.345,0.576,0.312c0,0.016-0.008,0.048-0.024,0.096c-0.064,0.057-0.14,0.12-0.228,0.192
		c-0.088,0.071-0.192,0.16-0.312,0.264c-0.28,0.208-0.436,0.312-0.468,0.312c-0.064,0-0.124-0.028-0.18-0.084
		c-0.016-0.017-0.056-0.078-0.12-0.187c-0.064-0.107-0.16-0.266-0.288-0.474c-0.112-0.176-0.22-0.305-0.324-0.384
		C30.315,9.4,30.312,9.38,30.312,9.348c0-0.024,0.012-0.078,0.036-0.162s0.04-0.138,0.048-0.162c0.016-0.144,0.03-0.246,0.042-0.306
		c0.012-0.06,0.018-0.082,0.018-0.066V5.736c0-0.184-0.088-0.412-0.264-0.684C30,4.756,29.828,4.608,29.676,4.608
		c-0.032,0-0.088,0.028-0.168,0.084l-0.072-0.084c0.016-0.016,0.034-0.034,0.054-0.054c0.02-0.02,0.046-0.046,0.078-0.078
		c0.128-0.112,0.246-0.22,0.354-0.324c0.108-0.104,0.214-0.208,0.318-0.312c0.127-0.12,0.208-0.18,0.24-0.18
		c0.112,0,0.284,0.164,0.516,0.492c0.2,0.288,0.316,0.492,0.348,0.612c0.04,0.056,0.072,0.124,0.096,0.204
		c0.16-0.152,0.408-0.388,0.744-0.708c0.36-0.336,0.596-0.504,0.708-0.504c0.096,0,0.272,0.152,0.528,0.456
		c0.04,0.056,0.096,0.122,0.168,0.198c0.072,0.076,0.152,0.17,0.24,0.282c0.032-0.016,0.066-0.032,0.102-0.048
		c0.036-0.016,0.074-0.032,0.114-0.048v3.888c0,0.248,0.096,0.492,0.288,0.732c0.184,0.208,0.336,0.312,0.456,0.312
		c-0.016,0-0.008-0.002,0.024-0.006c0.032-0.004,0.092-0.01,0.18-0.018v0.06C34.992,9.668,34.66,9.968,33.996,10.464z"/>
	<path fill="#010101" d="M39.024,10.44c-0.064-0.063-0.136-0.14-0.216-0.228s-0.176-0.188-0.288-0.3
		c-0.041-0.057-0.09-0.141-0.15-0.252c-0.06-0.112-0.134-0.248-0.222-0.408c-0.041,0.032-0.096,0.071-0.168,0.12
		c-0.072,0.048-0.152,0.111-0.24,0.191c-0.088,0.097-0.182,0.192-0.282,0.288c-0.101,0.096-0.206,0.192-0.318,0.288
		c-0.016,0.017-0.078,0.062-0.186,0.138c-0.108,0.076-0.262,0.183-0.462,0.318l-0.072-0.06c0.016-0.192-0.104-0.404-0.36-0.637
		c-0.224-0.199-0.448-0.332-0.672-0.396c0.168-0.248,0.252-0.496,0.252-0.744V7.044c0-0.04-0.02-0.128-0.06-0.265
		c0.008-0.008,0.016-0.018,0.024-0.03c0.008-0.012,0.02-0.026,0.036-0.042c0.144,0,0.34-0.028,0.588-0.084
		c0.08-0.032,0.182-0.064,0.306-0.096c0.124-0.032,0.278-0.068,0.462-0.108c0.112-0.032,0.256-0.068,0.432-0.108
		c0.176-0.04,0.38-0.092,0.612-0.156v-0.54c-0.08-0.128-0.308-0.324-0.684-0.588c-0.272-0.184-0.552-0.328-0.84-0.432
		c-0.04,0.04-0.08,0.074-0.12,0.102c-0.041,0.028-0.076,0.054-0.108,0.078c-0.12,0.112-0.18,0.3-0.18,0.564
		c0,0.312-0.06,0.468-0.18,0.468c-0.184,0-0.276-0.112-0.276-0.336c0-0.264,0.14-0.504,0.42-0.72
		c0.096-0.072,0.252-0.194,0.468-0.366c0.216-0.172,0.496-0.398,0.84-0.678l1.38,0.888c0.128,0.088,0.308,0.16,0.54,0.216v0.06
		c-0.168,0.256-0.252,0.452-0.252,0.588v2.855c0,0.12,0.236,0.509,0.708,1.164c0.056,0.064,0.144,0.093,0.264,0.084l0.024,0.072
		L39.024,10.44z M38.04,6.348l-1.212,0.324C36.74,6.928,36.704,7.224,36.72,7.56c0.016,0.592-0.012,1.024-0.084,1.296l0.792,0.78
		l0.612-0.516V6.348z"/>
	<path fill="#010101" d="M45.216,10.26c-0.264,0.168-0.56,0.252-0.888,0.252c-0.248,0-0.496-0.024-0.744-0.072v0.744h-0.18v-0.78
		L42.048,9.96c-0.576-0.185-1.132-0.276-1.668-0.276c-0.24,0-0.46,0.072-0.66,0.216l-0.048-0.023V9.816
		c0-0.056,0.132-0.199,0.396-0.432c0.127-0.112,0.236-0.2,0.324-0.264c0.088-0.064,0.156-0.112,0.204-0.145
		c0.088-0.063,0.18-0.111,0.276-0.144c0.064-0.008,0.136-0.019,0.216-0.03c0.08-0.012,0.176-0.03,0.288-0.054
		c0.296-0.152,0.444-0.592,0.444-1.32c0-0.288-0.06-0.576-0.18-0.864C41.472,6.188,41.24,6,40.944,6
		c-0.264,0-0.521,0.072-0.768,0.216V6.144c0-0.024,0.052-0.088,0.156-0.192c0.32-0.336,0.588-0.544,0.804-0.624
		c0.176-0.064,0.38-0.092,0.612-0.084c-0.064-0.192-0.128-0.52-0.192-0.984c-0.032-0.216-0.054-0.408-0.066-0.576
		c-0.012-0.168-0.018-0.312-0.018-0.432c0-0.048,0.006-0.104,0.018-0.168c0.012-0.063,0.03-0.13,0.054-0.198
		c0.024-0.068,0.05-0.13,0.078-0.186c0.028-0.056,0.054-0.096,0.078-0.12c0.296-0.288,0.612-0.564,0.948-0.828
		c0.336-0.264,0.696-0.52,1.08-0.768c0.04-0.032,0.136-0.048,0.288-0.048c0.256,0,0.556,0.088,0.9,0.264
		c0.344,0.168,0.556,0.252,0.636,0.252c0.12,0,0.26-0.028,0.42-0.084c0.008,0.008,0.024,0.022,0.048,0.042s0.056,0.046,0.096,0.078
		c-0.2,0.136-0.354,0.246-0.462,0.33s-0.178,0.134-0.21,0.15C45.14,2.152,44.892,2.244,44.7,2.244c-0.152,0-0.42-0.088-0.804-0.264
		c-0.376-0.176-0.64-0.264-0.792-0.264c-0.048,0-0.132,0.02-0.252,0.06c-0.288,0.136-0.432,0.456-0.432,0.96
		c0,0.032,0.012,0.156,0.036,0.372c0.024,0.216,0.064,0.528,0.12,0.936c0.08,0.624,0.138,1.142,0.174,1.554
		c0.036,0.412,0.054,0.726,0.054,0.942c0,0.857-0.364,1.6-1.092,2.232c-0.016,0.04,0.008,0.064,0.072,0.072s0.14,0.021,0.228,0.036
		c0.088,0.016,0.188,0.032,0.3,0.048c0.096,0.032,0.234,0.074,0.414,0.126c0.18,0.052,0.406,0.118,0.678,0.198v-7.14h0.18V9.3
		c0.752,0.216,1.304,0.324,1.656,0.324c0.416,0,0.736-0.101,0.96-0.301h0.096V9.42C45.64,9.948,45.28,10.228,45.216,10.26z"/>
	<path fill="#010101" d="M48.516,9.822c-0.08,0.084-0.172,0.171-0.276,0.259c-0.296,0.256-0.52,0.384-0.672,0.384
		c-0.224,0-0.424-0.16-0.6-0.48c-0.208-0.352-0.312-0.552-0.312-0.6c0.12-0.488,0.18-0.764,0.18-0.828V5.652
		c0-0.128-0.04-0.288-0.12-0.48c-0.088-0.192-0.152-0.312-0.192-0.36c-0.04-0.032-0.088-0.074-0.144-0.126
		c-0.056-0.052-0.116-0.11-0.18-0.174V4.428c0.096-0.056,0.22-0.136,0.372-0.24c0.352-0.32,0.568-0.48,0.648-0.48
		c0.072,0,0.192,0.116,0.36,0.348c0.032,0.048,0.074,0.108,0.126,0.18c0.052,0.072,0.114,0.16,0.186,0.264
		c0.016,0,0.042,0.002,0.078,0.006c0.036,0.004,0.074,0.01,0.114,0.018c0,0.024-0.012,0.06-0.036,0.108l-0.06,0.108
		c0-0.008-0.032,0.072-0.096,0.24c-0.024,0.072-0.036,0.128-0.036,0.168v3.636c0,0.111,0.036,0.228,0.108,0.348
		c0.04,0.08,0.112,0.16,0.216,0.24c0.136,0.111,0.24,0.168,0.312,0.168c0.056,0,0.12-0.013,0.192-0.036
		c0.024,0.023,0.04,0.048,0.048,0.072C48.667,9.657,48.596,9.738,48.516,9.822z M47.496,2.628c-0.24,0-0.448-0.06-0.624-0.18
		c-0.208-0.136-0.312-0.316-0.312-0.54c0-0.192,0.088-0.4,0.264-0.624c0.128-0.176,0.256-0.276,0.384-0.3
		c0.024,0.224,0.088,0.384,0.192,0.48c0.272,0.248,0.584,0.372,0.936,0.372c0.16,0,0.336-0.044,0.528-0.132
		c0.008,0.008,0.012,0.016,0.012,0.024l0.012,0.012C48.384,2.333,47.92,2.628,47.496,2.628z"/>
	<path fill="#010101" d="M52.919,9.096C52.823,9.152,52.706,9.22,52.565,9.3c-0.14,0.08-0.302,0.176-0.486,0.288
		c-0.056,0.023-0.147,0.08-0.275,0.168c-0.088,0.104-0.178,0.198-0.27,0.282c-0.093,0.084-0.19,0.166-0.295,0.246
		c-0.048,0.04-0.107,0.086-0.18,0.138s-0.16,0.109-0.264,0.174c-0.041-0.056-0.094-0.124-0.162-0.204s-0.146-0.172-0.234-0.276
		c-0.04-0.039-0.128-0.18-0.264-0.42c-0.088-0.144-0.18-0.216-0.275-0.216c-0.064,0-0.133,0.013-0.205,0.036
		c-0.023-0.023-0.031-0.052-0.023-0.084c0.056-0.151,0.088-0.26,0.096-0.324c0.057-0.328,0.084-0.576,0.084-0.744V3.636
		c0-0.264-0.023-0.62-0.072-1.068c-0.048-0.392-0.08-0.616-0.096-0.672c-0.072-0.24-0.24-0.368-0.504-0.384h-0.264l-0.048-0.06
		c0.04-0.072,0.164-0.12,0.373-0.144c0.416-0.032,0.855-0.148,1.319-0.348c0.104-0.04,0.228-0.094,0.372-0.162
		s0.316-0.146,0.516-0.234c0.433-0.2,0.748-0.3,0.948-0.3c0.16,0,0.3,0.05,0.421,0.15c0.119,0.1,0.18,0.226,0.18,0.378
		c0,0.112-0.088,0.256-0.265,0.432c-0.168,0.176-0.308,0.264-0.42,0.264h-0.144c0.016-0.096,0.029-0.176,0.041-0.24
		c0.013-0.064,0.019-0.116,0.019-0.156c0-0.256-0.155-0.384-0.468-0.384c-0.264,0-0.482,0.09-0.654,0.27
		c-0.172,0.18-0.258,0.406-0.258,0.678v3.216l0.048,0.036l1.188-1.116c0.104,0.072,0.25,0.17,0.438,0.294s0.422,0.274,0.702,0.45
		c0.017,0.016,0.042,0.032,0.078,0.048c0.036,0.016,0.078,0.041,0.126,0.072c0,0.048,0,0.096,0,0.144s-0.004,0.092-0.012,0.132
		c-0.017,0.2-0.028,0.398-0.036,0.594c-0.009,0.196-0.013,0.398-0.013,0.606v1.056c0,0.416,0.057,0.856,0.168,1.32
		C53.312,8.749,53.12,8.944,52.919,9.096z M52.308,5.976c0-0.176-0.023-0.356-0.072-0.54c-0.04-0.024-0.094-0.056-0.162-0.096
		s-0.149-0.088-0.246-0.144c-0.016-0.008-0.119-0.088-0.312-0.24c-0.063-0.056-0.114-0.096-0.149-0.12
		c-0.037-0.024-0.062-0.04-0.078-0.048c-0.041,0-0.108,0.052-0.205,0.156c-0.088,0.104-0.14,0.176-0.155,0.216
		c-0.04,0.256-0.07,0.476-0.091,0.66c-0.02,0.184-0.029,0.328-0.029,0.432v1.775c0,0.112,0.064,0.32,0.191,0.624
		C51.063,8.82,51.163,9,51.3,9.192c0.184,0.257,0.324,0.385,0.42,0.385c0.145,0,0.271-0.08,0.384-0.24
		c0.104-0.128,0.164-0.272,0.181-0.433c0.008-0.048,0.014-0.128,0.018-0.239c0.004-0.112,0.006-0.256,0.006-0.433V5.976z"/>
	<path fill="#010101" d="M61.392,9.696c-0.064,0.041-0.15,0.101-0.258,0.181c-0.108,0.08-0.242,0.176-0.402,0.288
		c-0.032,0.016-0.102,0.062-0.21,0.138s-0.255,0.182-0.438,0.318c-0.216-0.168-0.535-0.452-0.959-0.853
		c-0.033-0.048-0.07-0.102-0.115-0.162c-0.043-0.06-0.098-0.13-0.162-0.21c-0.023,0.017-0.055,0.03-0.096,0.042
		c-0.039,0.013-0.088,0.026-0.144,0.042V9.396l0.06-0.204c0.024-0.063,0.043-0.113,0.055-0.149s0.021-0.062,0.029-0.078
		c0.08-0.312,0.121-0.604,0.121-0.876V5.364c0-0.072-0.061-0.192-0.181-0.36c0.032-0.016,0.092-0.044,0.181-0.084
		c0.088-0.04,0.203-0.092,0.348-0.156c0.063-0.032,0.158-0.076,0.281-0.132c0.125-0.056,0.278-0.128,0.463-0.216l0.611-0.444
		c0.368-0.264,0.612-0.396,0.732-0.396c0.168,0,0.279,0.076,0.336,0.228c0.191,0.52,0.287,0.888,0.287,1.104
		c0,0.48-0.367,1.068-1.104,1.764c-0.04,0.04-0.086,0.088-0.138,0.145c-0.052,0.055-0.114,0.123-0.187,0.203
		c-0.184,0.192-0.3,0.288-0.348,0.288h-0.048c-0.048-0.032-0.072-0.075-0.072-0.132c0-0.088,0.116-0.191,0.349-0.312
		c0.016-0.016,0.037-0.037,0.065-0.065s0.062-0.062,0.103-0.102c0.24-0.296,0.359-0.668,0.359-1.116c0-0.136-0.004-0.216-0.012-0.24
		c-0.016-0.12-0.068-0.288-0.156-0.504c-0.136-0.312-0.275-0.468-0.42-0.468c-0.072,0-0.146,0.042-0.222,0.126
		c-0.076,0.084-0.122,0.162-0.138,0.234c-0.033,0.12-0.049,0.2-0.049,0.24V7.26c0,0.016-0.002,0.086-0.006,0.21
		s-0.01,0.306-0.018,0.546c0,0.032-0.012,0.086-0.036,0.162s-0.036,0.134-0.036,0.174c0,0.16,0.04,0.305,0.12,0.433
		c0.056,0.088,0.142,0.188,0.258,0.3s0.267,0.235,0.45,0.372c0.184,0.136,0.312,0.204,0.384,0.204c0.176,0,0.312-0.108,0.408-0.324
		c0.032-0.072,0.06-0.145,0.084-0.216c0.024-0.072,0.048-0.145,0.071-0.217c0.033-0.056,0.088-0.084,0.168-0.084
		c0.041,0,0.08,0.022,0.121,0.066c0.039,0.044,0.06,0.086,0.06,0.126C61.943,9.18,61.759,9.409,61.392,9.696z"/>
	<path fill="#010101" d="M67.913,4.026c-0.107,0.14-0.234,0.302-0.377,0.486c-0.289,0.344-0.564,0.516-0.828,0.516
		c-0.057,0-0.145-0.008-0.266-0.024c-0.119-0.016-0.207-0.024-0.264-0.024c-0.039,0.048-0.074,0.102-0.102,0.162
		s-0.059,0.122-0.09,0.186l-0.42,1.068c0,0.008,0.004,0.012,0.012,0.012c0.064,0.064,0.164,0.096,0.301,0.096
		c0.367,0,0.643-0.04,0.828-0.12V6.42c0,0.024-0.006,0.048-0.014,0.072c-0.398,0.329-0.711,0.532-0.936,0.612
		c-0.016,0.016-0.023,0.041-0.023,0.072c0,0.057,0.035,0.18,0.107,0.372c0.088,0.232,0.178,0.468,0.271,0.708
		c0.092,0.24,0.194,0.476,0.306,0.708c0.016,0.056,0.045,0.116,0.084,0.18c0.041,0.064,0.088,0.137,0.145,0.216
		c0.119,0.16,0.271,0.24,0.455,0.24c0.088,0,0.285-0.112,0.588-0.336c0.008,0,0.025,0.024,0.049,0.072
		c-0.072,0.088-0.164,0.193-0.275,0.317c-0.113,0.125-0.244,0.271-0.396,0.438c-0.279,0.288-0.545,0.432-0.793,0.432
		c-0.215,0-0.407-0.14-0.575-0.42c-0.017-0.016-0.048-0.078-0.097-0.186c-0.047-0.108-0.115-0.262-0.203-0.462
		c-0.032-0.08-0.094-0.24-0.186-0.48c-0.093-0.24-0.219-0.563-0.379-0.972c-0.096,0.2-0.248,0.516-0.455,0.948
		c-0.024,0.04-0.049,0.088-0.072,0.144l-0.024,0.336c-0.008,0.048-0.177,0.309-0.504,0.78c-0.04,0.063-0.082,0.126-0.126,0.186
		c-0.044,0.061-0.094,0.122-0.15,0.187c-0.008-0.017-0.027-0.04-0.06-0.072c-0.032-0.176-0.168-0.348-0.408-0.516
		c-0.2-0.152-0.388-0.24-0.563-0.265c-0.041,0-0.08-0.02-0.121-0.06c0.201-0.512,0.488-0.769,0.865-0.769
		c0.223,0,0.483,0.101,0.779,0.301l0.036,0.023l0.708-1.464c-0.016-0.072-0.04-0.158-0.072-0.258
		c-0.031-0.1-0.076-0.214-0.132-0.342c-0.04-0.008-0.231-0.012-0.575-0.012c-0.193,0-0.349,0-0.469,0s-0.208,0.004-0.264,0.012
		c0.151-0.16,0.42-0.352,0.804-0.576c0.056-0.008,0.151-0.032,0.288-0.072l-0.036-0.12c0-0.016-0.044-0.136-0.132-0.36
		c-0.057-0.128-0.112-0.26-0.168-0.396c-0.057-0.136-0.116-0.28-0.18-0.432c-0.24-0.464-0.513-0.696-0.816-0.696
		c-0.12,0-0.229,0.048-0.324,0.144h-0.061c-0.031-0.032-0.047-0.064-0.047-0.096c0-0.032,0.067-0.116,0.203-0.252
		c0.145-0.136,0.256-0.244,0.336-0.324s0.129-0.128,0.145-0.144c0.16-0.136,0.312-0.204,0.456-0.204c0.528,0,0.972,0.48,1.332,1.44
		c0.079,0.208,0.224,0.592,0.433,1.152c0.016-0.016,0.045-0.078,0.09-0.186c0.043-0.108,0.105-0.266,0.186-0.474
		c0.168-0.416,0.252-0.64,0.252-0.672c0-0.016-0.036-0.072-0.107-0.168c-0.064-0.112-0.097-0.172-0.097-0.18
		c0-0.056,0.104-0.224,0.312-0.504c0.217-0.272,0.352-0.408,0.408-0.408c-0.023,0,0.053,0.064,0.229,0.192
		c0.16,0.112,0.348,0.168,0.564,0.168c0.256,0,0.547-0.132,0.875-0.396v0.072C68.106,3.768,68.021,3.886,67.913,4.026z"/>
	<path fill="#010101" d="M71.986,10.44c-0.063-0.063-0.136-0.14-0.216-0.228s-0.176-0.188-0.288-0.3
		c-0.04-0.057-0.09-0.141-0.149-0.252c-0.061-0.112-0.135-0.248-0.223-0.408c-0.04,0.032-0.096,0.071-0.168,0.12
		c-0.071,0.048-0.151,0.111-0.239,0.191c-0.089,0.097-0.183,0.192-0.282,0.288c-0.101,0.096-0.206,0.192-0.318,0.288
		c-0.016,0.017-0.078,0.062-0.186,0.138c-0.108,0.076-0.263,0.183-0.462,0.318l-0.072-0.06c0.016-0.192-0.104-0.404-0.36-0.637
		c-0.224-0.199-0.448-0.332-0.672-0.396c0.168-0.248,0.252-0.496,0.252-0.744V7.044c0-0.04-0.02-0.128-0.06-0.265
		c0.008-0.008,0.016-0.018,0.023-0.03c0.008-0.012,0.021-0.026,0.036-0.042c0.145,0,0.34-0.028,0.588-0.084
		c0.08-0.032,0.182-0.064,0.307-0.096c0.124-0.032,0.277-0.068,0.462-0.108c0.111-0.032,0.256-0.068,0.432-0.108
		c0.176-0.04,0.38-0.092,0.612-0.156v-0.54c-0.08-0.128-0.309-0.324-0.685-0.588c-0.271-0.184-0.552-0.328-0.84-0.432
		c-0.04,0.04-0.08,0.074-0.12,0.102c-0.04,0.028-0.076,0.054-0.107,0.078c-0.12,0.112-0.181,0.3-0.181,0.564
		c0,0.312-0.06,0.468-0.18,0.468c-0.184,0-0.276-0.112-0.276-0.336c0-0.264,0.141-0.504,0.421-0.72
		c0.096-0.072,0.252-0.194,0.468-0.366s0.496-0.398,0.84-0.678l1.38,0.888c0.128,0.088,0.308,0.16,0.54,0.216v0.06
		c-0.168,0.256-0.252,0.452-0.252,0.588v2.855c0,0.12,0.235,0.509,0.708,1.164c0.056,0.064,0.144,0.093,0.264,0.084l0.024,0.072
		L71.986,10.44z M71.003,6.348l-1.212,0.324c-0.089,0.256-0.124,0.552-0.108,0.888c0.016,0.592-0.012,1.024-0.084,1.296l0.792,0.78
		l0.612-0.516V6.348z"/>
	<path fill="#010101" d="M80.446,10.104c-0.328,0.265-0.552,0.396-0.672,0.396s-0.244-0.076-0.372-0.229
		c-0.04-0.063-0.084-0.126-0.132-0.186c-0.048-0.061-0.092-0.122-0.132-0.187c-0.08-0.104-0.16-0.197-0.24-0.281
		s-0.164-0.158-0.252-0.223c0.024-0.08,0.046-0.153,0.066-0.222c0.02-0.068,0.037-0.134,0.054-0.198
		c0.072-0.36,0.108-0.744,0.108-1.152v-1.5c0-0.504-0.024-0.824-0.072-0.96c-0.017-0.04-0.036-0.082-0.061-0.126
		c-0.023-0.044-0.056-0.094-0.096-0.15c-0.336-0.288-0.544-0.432-0.624-0.432c-0.104,0-0.212,0.092-0.324,0.276
		c-0.096,0.128-0.164,0.264-0.204,0.408c-0.071,0.256-0.107,0.488-0.107,0.696v2.436c0,0.064,0.004,0.146,0.012,0.246
		s0.02,0.218,0.036,0.354c0.032,0.12,0.22,0.32,0.564,0.601c-0.217,0.312-0.549,0.596-0.996,0.852
		c-0.064-0.016-0.112-0.044-0.145-0.084c-0.392-0.527-0.6-0.819-0.624-0.876c0-0.016,0.012-0.046,0.036-0.09s0.036-0.074,0.036-0.09
		c0.088-0.44,0.132-0.736,0.132-0.888V6.06c0-0.28-0.06-0.516-0.18-0.708c-0.017-0.032-0.051-0.074-0.103-0.126
		c-0.052-0.052-0.122-0.122-0.21-0.21c-0.208-0.208-0.328-0.312-0.359-0.312c-0.04,0-0.129,0.08-0.265,0.24
		c-0.128,0.152-0.2,0.264-0.216,0.336c-0.072,0.256-0.107,0.456-0.107,0.6v2.172c0,0.376,0.02,0.676,0.06,0.9
		c0.024,0.119,0.084,0.252,0.18,0.396c0.104,0.176,0.208,0.264,0.312,0.264c0.016,0.017,0.023,0.036,0.023,0.061
		c0,0.056-0.14,0.212-0.42,0.468c-0.271,0.248-0.439,0.372-0.504,0.372c-0.088,0-0.296-0.284-0.624-0.852
		c-0.016-0.009-0.038-0.017-0.065-0.024c-0.028-0.008-0.062-0.02-0.103-0.036c0.032-0.08,0.064-0.184,0.096-0.312
		c0.04-0.36,0.07-0.646,0.091-0.858c0.02-0.212,0.029-0.354,0.029-0.426V5.976c0-0.2-0.044-0.44-0.132-0.72
		c-0.12-0.328-0.264-0.492-0.432-0.492L73.33,4.812l-0.023-0.048c0.319-0.384,0.728-0.72,1.224-1.008
		c0.168,0.176,0.34,0.52,0.517,1.032c0.016,0.016,0.027,0.048,0.036,0.096l1.332-1.14c0.495,0.328,0.823,0.692,0.983,1.092
		c0.008,0.008,0.014,0.016,0.019,0.024c0.004,0.008,0.014,0.02,0.029,0.036c0.072-0.064,0.164-0.15,0.276-0.258
		s0.244-0.23,0.396-0.366c0.4-0.368,0.641-0.552,0.721-0.552c0.056,0,0.132,0.048,0.228,0.144l0.252,0.252
		c0.048,0.04,0.112,0.094,0.192,0.162s0.176,0.154,0.288,0.258c0.048-0.016,0.08-0.024,0.096-0.024h0.072
		c-0.017,0.088-0.032,0.18-0.048,0.276c-0.017,0.096-0.028,0.196-0.036,0.3c-0.017,0.208-0.028,0.398-0.036,0.57
		c-0.008,0.172-0.017,0.334-0.024,0.486c-0.016,0.624-0.016,1.4,0,2.328c0,0.192,0.136,0.46,0.408,0.804
		c0.192,0.257,0.34,0.385,0.444,0.385c0.016,0,0.104-0.044,0.264-0.133l0.036,0.084C80.839,9.749,80.662,9.913,80.446,10.104z"/>
	<path fill="#010101" d="M85.361,5.634c-0.02,0.22-0.03,0.418-0.03,0.594v1.729c0,0.088,0.008,0.188,0.024,0.3
		c0.016,0.112,0.04,0.236,0.072,0.372c0,0.136-0.024,0.22-0.072,0.252c-0.144,0.088-0.24,0.156-0.288,0.204
		c-0.08,0.063-0.186,0.151-0.318,0.264c-0.132,0.112-0.29,0.248-0.474,0.408c-0.048,0.048-0.108,0.107-0.18,0.18
		c-0.072,0.072-0.156,0.152-0.252,0.24c-0.152,0.152-0.257,0.228-0.312,0.228c-0.032,0-0.252-0.096-0.66-0.288l-0.06,0.049v0.804
		c0,0.096,0.03,0.216,0.09,0.36c0.061,0.144,0.126,0.235,0.198,0.275v0.072c-0.145,0.104-0.318,0.234-0.522,0.39
		c-0.204,0.156-0.438,0.347-0.702,0.57c-0.231,0.2-0.434,0.368-0.605,0.504s-0.314,0.236-0.426,0.3
		c-0.368,0.225-0.736,0.336-1.104,0.336c-0.359,0-0.54-0.107-0.54-0.323c0-0.057,0.019-0.122,0.055-0.198
		c0.035-0.076,0.08-0.148,0.132-0.216c0.052-0.068,0.109-0.129,0.174-0.181s0.128-0.09,0.192-0.113c0.008,0,0.027,0.008,0.06,0.023
		c0.048,0.248,0.248,0.372,0.6,0.372c0.648,0,1.08-0.324,1.296-0.972c0.112-0.36,0.168-0.904,0.168-1.632v-0.48
		c0-0.2-0.063-0.3-0.191-0.3c-0.288,0-0.601,0.156-0.937,0.468h-0.071c-0.017-0.048,0.016-0.104,0.096-0.168
		c0.464-0.439,0.832-0.748,1.104-0.924c0.017-0.184,0.028-0.322,0.036-0.414s0.013-0.142,0.013-0.15V6.144
		c0-0.48-0.177-0.964-0.528-1.452c-0.024-0.024-0.052-0.044-0.084-0.06c-0.008,0.008-0.06,0.044-0.156,0.108l-0.048-0.024v-0.06
		c0-0.024,0.046-0.078,0.138-0.162s0.23-0.214,0.414-0.39c0.265-0.24,0.416-0.36,0.456-0.36c0.152,0,0.292,0.172,0.42,0.516
		c0.032,0.08,0.074,0.176,0.126,0.288c0.053,0.112,0.11,0.244,0.175,0.396l0.107-0.048c0.769-0.792,1.224-1.188,1.368-1.188
		l0.12,0.024c0.088,0.096,0.176,0.192,0.264,0.288c0.088,0.096,0.185,0.192,0.288,0.288c0.048,0.048,0.096,0.096,0.145,0.144
		c0.048,0.048,0.096,0.092,0.144,0.132c0.12,0.12,0.18,0.232,0.18,0.336C85.411,5.176,85.381,5.414,85.361,5.634z M84.396,5.7
		c0-0.104-0.017-0.172-0.048-0.204L83.556,4.68c-0.16,0.056-0.32,0.212-0.48,0.468c-0.144,0.256-0.216,0.476-0.216,0.66v3.204
		c0.096,0.008,0.2,0.028,0.312,0.06c0.111,0.032,0.235,0.076,0.372,0.133c0.271,0.111,0.476,0.231,0.611,0.359l0.097-0.023
		L84.3,9.504c0.031-0.16,0.056-0.336,0.071-0.528c0.017-0.191,0.024-0.403,0.024-0.636V5.7z"/>
	<path fill="#010101" d="M88.895,1.26h-0.096c-0.097-0.248-0.212-0.372-0.349-0.372c-0.416,0-0.624,0.396-0.624,1.188v6.576
		c0,0.177,0.049,0.336,0.145,0.48c0.288,0.432,0.504,0.647,0.647,0.647c0.017,0,0.08-0.012,0.192-0.035
		c0.016,0.016,0.028,0.031,0.036,0.048c-0.096,0.136-0.288,0.315-0.576,0.54c-0.136,0.111-0.258,0.208-0.366,0.288
		c-0.107,0.079-0.202,0.144-0.281,0.191c-0.064-0.016-0.164-0.12-0.301-0.312c-0.088-0.136-0.164-0.244-0.228-0.324
		c-0.064-0.08-0.112-0.136-0.145-0.168l-0.42-0.348c-0.032-0.024-0.048-0.057-0.048-0.097L86.627,9.3
		c0.079-0.168,0.119-0.296,0.119-0.384V1.98c0-0.127-0.063-0.232-0.191-0.312c-0.112-0.072-0.236-0.108-0.372-0.108
		c-0.032-0.024-0.048-0.044-0.048-0.06c0.023-0.024,0.056-0.043,0.096-0.06c0.192-0.008,0.36-0.032,0.504-0.072
		c0.176-0.032,0.62-0.248,1.332-0.648c0.424-0.232,0.708-0.348,0.853-0.348c0.088,0,0.176,0.034,0.264,0.102
		c0.088,0.068,0.132,0.146,0.132,0.234C89.314,0.868,89.175,1.052,88.895,1.26z"/>
	<path fill="#010101" d="M92.171,9.696c-0.064,0.041-0.15,0.101-0.258,0.181c-0.108,0.08-0.242,0.176-0.402,0.288
		c-0.032,0.016-0.103,0.062-0.21,0.138c-0.108,0.076-0.254,0.182-0.438,0.318c-0.216-0.168-0.536-0.452-0.96-0.853
		c-0.032-0.048-0.069-0.102-0.113-0.162c-0.045-0.06-0.099-0.13-0.162-0.21c-0.024,0.017-0.057,0.03-0.097,0.042
		c-0.04,0.013-0.088,0.026-0.144,0.042V9.396l0.06-0.204c0.024-0.063,0.042-0.113,0.055-0.149c0.012-0.036,0.021-0.062,0.029-0.078
		c0.08-0.312,0.12-0.604,0.12-0.876V5.364c0-0.072-0.06-0.192-0.18-0.36c0.032-0.016,0.092-0.044,0.18-0.084
		s0.204-0.092,0.349-0.156c0.063-0.032,0.157-0.076,0.281-0.132s0.278-0.128,0.462-0.216l0.612-0.444
		c0.368-0.264,0.612-0.396,0.732-0.396c0.168,0,0.279,0.076,0.336,0.228c0.191,0.52,0.288,0.888,0.288,1.104
		c0,0.48-0.368,1.068-1.104,1.764c-0.04,0.04-0.086,0.088-0.138,0.145c-0.052,0.055-0.114,0.123-0.187,0.203
		c-0.184,0.192-0.3,0.288-0.348,0.288h-0.048c-0.048-0.032-0.072-0.075-0.072-0.132c0-0.088,0.116-0.191,0.349-0.312
		c0.016-0.016,0.037-0.037,0.065-0.065s0.062-0.062,0.103-0.102C91.57,6.4,91.69,6.028,91.69,5.58c0-0.136-0.004-0.216-0.012-0.24
		c-0.017-0.12-0.068-0.288-0.156-0.504c-0.136-0.312-0.275-0.468-0.42-0.468c-0.072,0-0.146,0.042-0.222,0.126
		s-0.122,0.162-0.139,0.234c-0.031,0.12-0.048,0.2-0.048,0.24V7.26c0,0.016-0.002,0.086-0.006,0.21s-0.01,0.306-0.018,0.546
		c0,0.032-0.013,0.086-0.036,0.162c-0.024,0.076-0.036,0.134-0.036,0.174c0,0.16,0.04,0.305,0.12,0.433
		c0.056,0.088,0.142,0.188,0.258,0.3s0.266,0.235,0.45,0.372c0.184,0.136,0.312,0.204,0.384,0.204c0.176,0,0.312-0.108,0.408-0.324
		c0.032-0.072,0.06-0.145,0.084-0.216c0.024-0.072,0.048-0.145,0.072-0.217c0.031-0.056,0.088-0.084,0.168-0.084
		c0.04,0,0.079,0.022,0.12,0.066c0.039,0.044,0.06,0.086,0.06,0.126C92.723,9.18,92.538,9.409,92.171,9.696z"/>
</g>
</svg>
